<svg aria-hidden="true" version="1.1" xmlns="http://www.w3.org/2000/svg" xmlns:xlink="http://www.w3.org/1999/xlink">
<defs>

<symbol id="dashboard_big-pie-chart" viewBox="0 0 32 32">
<path fill="none" stroke="#387dff" style="stroke: var(--color2, #387dff)" stroke-linejoin="miter" stroke-linecap="butt" stroke-miterlimit="4" stroke-width="7.8974" d="M27.683 16.165c0 6.542-5.304 11.846-11.846 11.846s-11.846-5.304-11.846-11.846c0-6.542 5.304-11.846 11.846-11.846s11.846 5.304 11.846 11.846z"></path>
<path fill="none" stroke="#778ca2" style="stroke: var(--color3, #778ca2)" stroke-linejoin="miter" stroke-linecap="butt" stroke-miterlimit="4" stroke-width="7.8974" d="M27.683 16.165c0 6.542-5.304 11.846-11.846 11.846s-11.846-5.304-11.846-11.846c0-6.542 5.304-11.846 11.846-11.846s11.846 5.304 11.846 11.846z"></path>
<path fill="none" stroke="#6dd230" style="stroke: var(--color4, #6dd230)" stroke-linejoin="miter" stroke-linecap="butt" stroke-miterlimit="4" stroke-width="7.8974" d="M15.904 28.011v0c6.475 0 11.779-5.304 11.779-11.779 0-1.217-0.18-2.39-0.514-3.493"></path>
<path fill="none" stroke="#8978ff" style="stroke: var(--color5, #8978ff)" stroke-linejoin="miter" stroke-linecap="butt" stroke-miterlimit="4" stroke-width="7.8974" d="M3.991 16.232c0 6.475 5.304 11.779 11.913 11.779v0"></path>
<path fill="none" stroke="#fe7c4b" style="stroke: var(--color6, #fe7c4b)" stroke-linejoin="miter" stroke-linecap="butt" stroke-miterlimit="4" stroke-width="7.8974" d="M9.682 6.055c-3.421 2.087-5.691 5.852-5.691 10.176"></path>
<path fill="none" stroke="#23b899" style="stroke: var(--color7, #23b899)" stroke-linejoin="miter" stroke-linecap="butt" stroke-miterlimit="4" stroke-width="7.8974" d="M7.848 7.433c-2.375 2.174-3.858 5.303-3.858 8.798 0 1.755 0.389 3.423 1.089 4.924"></path>
</symbol>
<symbol id="dashboard-up-and-down-arrow-marked" viewBox="0 0 16 32">
<path fill="#8590b3" style="fill: var(--color8, #8590b3)" d="M9.873 4.787c-0.573-0.915-1.906-0.915-2.479 0l-4.671 7.465c-0.609 0.974 0.091 2.238 1.239 2.238h9.342c1.149 0 1.849-1.264 1.239-2.238l-4.671-7.465z"></path>
<path fill="#56469e" style="fill: var(--color9, #56469e)" d="M9.873 27.112c-0.573 0.915-1.906 0.915-2.479 0l-4.671-7.465c-0.609-0.974 0.091-2.238 1.239-2.238h9.342c1.149 0 1.849 1.264 1.239 2.238l-4.671 7.465z"></path>
</symbol>
<symbol id="dashboard-up-and-down-arrow" viewBox="0 0 16 32">
<path fill="#8590b3" style="fill: var(--color8, #8590b3)" d="M8.549 4.787c-0.573-0.915-1.906-0.915-2.479 0l-4.671 7.465c-0.609 0.974 0.091 2.238 1.239 2.238h9.342c1.149 0 1.849-1.264 1.239-2.238l-4.671-7.465z"></path>
<path fill="#8590b3" style="fill: var(--color8, #8590b3)" d="M8.549 27.112c-0.573 0.915-1.906 0.915-2.479 0l-4.671-7.465c-0.609-0.974 0.091-2.238 1.239-2.238h9.342c1.149 0 1.849 1.264 1.239 2.238l-4.671 7.465z"></path>
</symbol>
<symbol id="dashboard-down-arrow" viewBox="0 0 41 32">
<path d="M22.208 30.401c-0.822 1.278-2.69 1.278-3.513 0l-14.97-23.26c-0.895-1.39 0.103-3.219 1.756-3.219h29.94c1.653 0 2.651 1.829 1.756 3.219l-14.97 23.26z"></path>
</symbol>
<symbol id="dashboard_heart_2" viewBox="0 0 32 32">
<path fill="#503e9d" style="fill: var(--color10, #503e9d)" d="M21.133 3.334c0.841 0 1.681 0.119 2.48 0.387 4.921 1.6 6.695 7 5.213 11.72-0.84 2.412-2.213 4.613-4.012 6.412-2.575 2.493-5.4 4.707-8.441 6.613l-0.333 0.201-0.347-0.215c-3.052-1.893-5.893-4.107-8.492-6.613-1.787-1.799-3.161-3.987-4.015-6.399-1.507-4.72 0.267-10.12 5.241-11.748 0.387-0.133 0.785-0.227 1.185-0.279h0.16c0.375-0.055 0.747-0.080 1.12-0.080h0.147c0.84 0.025 1.653 0.172 2.441 0.44h0.079c0.053 0.025 0.093 0.053 0.12 0.079 0.295 0.095 0.573 0.201 0.84 0.348l0.507 0.227c0.122 0.065 0.26 0.165 0.379 0.251 0.075 0.055 0.143 0.104 0.195 0.135 0.022 0.013 0.044 0.026 0.066 0.039 0.114 0.067 0.233 0.136 0.334 0.213 1.481-1.132 3.28-1.745 5.133-1.732zM24.68 12.934c0.547-0.015 1.013-0.453 1.053-1.015v-0.159c0.040-1.868-1.092-3.56-2.813-4.213-0.547-0.188-1.147 0.107-1.347 0.667-0.187 0.56 0.107 1.173 0.667 1.372 0.855 0.32 1.427 1.161 1.427 2.093v0.041c-0.025 0.305 0.067 0.6 0.253 0.827s0.467 0.359 0.76 0.387z"></path>
</symbol>
<symbol id="dashboard-settings" viewBox="0 0 32 32">
<path fill="#fff" style="fill: var(--color11, #fff)" d="M29.805 12.096l-2.25-0.286c-0.185-0.571-0.414-1.121-0.681-1.644l1.389-1.789c0.562-0.724 0.497-1.746-0.146-2.368l-1.885-1.885c-0.628-0.649-1.65-0.713-2.376-0.152l-1.787 1.389c-0.523-0.267-1.073-0.495-1.645-0.681l-0.286-2.246c-0.108-0.901-0.872-1.58-1.778-1.58h-2.681c-0.906 0-1.671 0.679-1.778 1.576l-0.286 2.25c-0.572 0.186-1.123 0.413-1.646 0.681l-1.788-1.389c-0.723-0.561-1.745-0.497-2.368 0.146l-1.885 1.884c-0.649 0.63-0.714 1.652-0.152 2.377l1.389 1.788c-0.268 0.523-0.495 1.073-0.681 1.644l-2.246 0.286c-0.901 0.108-1.58 0.872-1.58 1.778v2.681c0 0.906 0.679 1.671 1.576 1.778l2.25 0.286c0.186 0.571 0.414 1.121 0.681 1.644l-1.389 1.789c-0.562 0.724-0.497 1.746 0.146 2.368l1.885 1.885c0.63 0.647 1.65 0.712 2.376 0.151l1.788-1.389c0.523 0.268 1.073 0.497 1.644 0.681l0.286 2.245c0.108 0.903 0.872 1.582 1.778 1.582h2.681c0.906 0 1.671-0.678 1.778-1.576l0.286-2.25c0.571-0.186 1.121-0.414 1.644-0.681l1.789 1.389c0.724 0.562 1.746 0.497 2.368-0.146l1.885-1.885c0.649-0.629 0.714-1.65 0.152-2.375l-1.389-1.788c0.268-0.523 0.497-1.073 0.681-1.644l2.245-0.286c0.901-0.108 1.58-0.872 1.58-1.778v-2.681c0.001-0.906-0.677-1.671-1.575-1.778zM17.020 21.198c-3.299 0-5.984-2.684-5.984-5.984s2.684-5.984 5.984-5.984c3.299 0 5.984 2.684 5.984 5.984s-2.684 5.984-5.984 5.984z"></path>
</symbol>
<symbol id="dashboard-heart" viewBox="0 0 32 32">
<path fill="none" stroke="#503e9d" style="stroke: var(--color10, #503e9d)" stroke-linejoin="miter" stroke-linecap="butt" stroke-miterlimit="4" stroke-width="1.9583" d="M27.806 16.387l-11.699 11.854-11.698-11.854c-4.323-4.379-1.203-11.863 4.849-11.863 2.92 0 4.416 1.578 5.457 2.675 0.295 0.311 0.553 0.583 0.796 0.77l0.596 0.457 0.596-0.457c0.242-0.185 0.499-0.456 0.792-0.766 1.041-1.097 2.544-2.679 5.46-2.679 6.067 0 9.156 7.502 4.85 11.863v0z"></path>
</symbol>
<symbol id="dashboard-speech-bubble" viewBox="0 0 32 32">
<path fill="#9a98b8" style="fill: var(--color12, #9a98b8)" d="M6.203 28.658h-2.062l1.458-1.458c0.786-0.786 1.277-1.808 1.409-2.918-2.051-1.346-3.551-3.117-4.354-5.148-0.802-2.029-0.903-4.263-0.292-6.46 0.734-2.636 2.455-5.039 4.846-6.766 2.599-1.877 5.833-2.868 9.355-2.868 4.436 0 8.175 1.275 10.813 3.686 2.376 2.172 3.685 5.103 3.685 8.251 0 1.53-0.312 3.018-0.926 4.423-0.636 1.455-1.566 2.75-2.766 3.849-2.642 2.421-6.378 3.7-10.807 3.7-1.644 0-3.359-0.219-4.891-0.622-1.45 1.487-3.414 2.33-5.47 2.33zM16.564 4.748c-7.061 0-11.394 4.211-12.556 8.385-1.098 3.944 0.521 7.671 4.329 9.969l0.426 0.257-0.013 0.497c-0.026 0.983-0.26 1.93-0.68 2.787 1.022-0.346 1.949-0.973 2.675-1.83l0.361-0.427 0.535 0.16c1.502 0.449 3.251 0.697 4.923 0.697 8.788 0 12.791-5.321 12.791-10.265 0-2.663-1.112-5.145-3.13-6.99-2.318-2.119-5.659-3.239-9.661-3.239z"></path>
</symbol>
<symbol id="dashboard-star" viewBox="0 0 32 32">
<path fill="#8478ba" style="fill: var(--color13, #8478ba)" d="M25.105 19.569c-0.399 0.386-0.582 0.945-0.491 1.492l1.368 7.569c0.115 0.642-0.155 1.291-0.692 1.662-0.526 0.384-1.226 0.431-1.8 0.123l-6.814-3.554c-0.237-0.126-0.5-0.194-0.769-0.202h-0.417c-0.145 0.022-0.286 0.068-0.415 0.139l-6.815 3.571c-0.337 0.169-0.718 0.229-1.092 0.169-0.911-0.172-1.518-1.040-1.369-1.955l1.369-7.569c0.091-0.552-0.092-1.114-0.491-1.506l-5.555-5.385c-0.465-0.451-0.626-1.128-0.414-1.738 0.206-0.609 0.732-1.054 1.368-1.154l7.646-1.109c0.582-0.060 1.092-0.414 1.354-0.937l3.369-6.908c0.080-0.154 0.183-0.295 0.308-0.415l0.138-0.108c0.072-0.080 0.155-0.146 0.248-0.2l0.168-0.062 0.262-0.108h0.648c0.578 0.060 1.088 0.406 1.354 0.923l3.414 6.877c0.246 0.503 0.725 0.852 1.277 0.937l7.646 1.109c0.646 0.092 1.186 0.538 1.4 1.154 0.202 0.617 0.028 1.294-0.446 1.738l-5.754 5.446z"></path>
</symbol>
<symbol id="dashboard-menu-2" viewBox="0 0 35 32">
<path fill="#503e9d" style="fill: var(--color10, #503e9d)" opacity="0.7" d="M3.789 31.957h5.222c0.721 0 1.306-0.585 1.306-1.305v-28.721c0-0.721-0.585-1.306-1.306-1.306h-5.222c-0.721 0-1.306 0.585-1.306 1.306v28.721c0 0.721 0.585 1.305 1.306 1.305z"></path>
<path fill="#503e9d" style="fill: var(--color10, #503e9d)" opacity="0.7" d="M15.538 31.959h5.222c0.721 0 1.306-0.585 1.306-1.305v-28.721c0-0.721-0.585-1.306-1.306-1.306h-5.222c-0.721 0-1.306 0.585-1.306 1.306v28.721c0 0.721 0.585 1.305 1.306 1.305z"></path>
<path fill="#503e9d" style="fill: var(--color10, #503e9d)" opacity="0.7" d="M32.509 0.627h-5.222c-0.721 0-1.306 0.585-1.306 1.306v28.721c0 0.721 0.585 1.305 1.306 1.305h5.222c0.721 0 1.306-0.585 1.306-1.305v-28.721c0-0.721-0.585-1.306-1.306-1.306z"></path>
</symbol>
<symbol id="dashboard-send" viewBox="0 0 32 32">
<path fill="#8478ba" style="fill: var(--color13, #8478ba)" d="M31.096 0.931c-0.8-0.821-1.985-1.127-3.089-0.805l-25.755 7.489c-1.165 0.324-1.991 1.253-2.214 2.434-0.227 1.202 0.567 2.727 1.604 3.365l8.053 4.949c0.826 0.507 1.892 0.38 2.575-0.309l9.221-9.279c0.464-0.483 1.233-0.483 1.697 0 0.464 0.467 0.464 1.224 0 1.707l-9.237 9.28c-0.685 0.688-0.813 1.759-0.309 2.59l4.92 8.134c0.576 0.966 1.569 1.514 2.657 1.514 0.128 0 0.272 0 0.4-0.016 1.248-0.161 2.241-1.015 2.609-2.223l7.635-25.722c0.336-1.095 0.032-2.287-0.768-3.108z"></path>
</symbol>

<symbol id="dashboard-bell" viewBox="0 0 28 32">
<path fill="#fff" style="fill: var(--color11, #fff)" d="M13.627 1.932c-2.406 0-4.536 1.554-5.271 3.846l-5.967 18.621h22.475l-5.967-18.621c-0.734-2.291-2.865-3.846-5.271-3.846zM10.253 26.646c-0.62 0-1.123 0.503-1.123 1.123s0.503 1.123 1.123 1.123h6.74c0.62 0 1.123-0.503 1.123-1.123s-0.503-1.123-1.123-1.123h-6.74z"></path>
</symbol>
<symbol id="dashboard-menu" viewBox="0 0 32 32">
<path fill="#54439d" style="fill: var(--color14, #54439d)" d="M6.053 2.667h4.507c1.88 0 3.387 1.533 3.387 3.415v4.545c0 1.893-1.507 3.413-3.387 3.413h-4.507c-1.867 0-3.387-1.52-3.387-3.413v-4.545c0-1.881 1.52-3.415 3.387-3.415zM6.053 17.96h4.507c1.88 0 3.387 1.521 3.387 3.415v4.545c0 1.88-1.507 3.413-3.387 3.413h-4.507c-1.867 0-3.387-1.533-3.387-3.413v-4.545c0-1.893 1.52-3.415 3.387-3.415zM25.947 2.667h-4.507c-1.88 0-3.387 1.533-3.387 3.415v4.545c0 1.893 1.507 3.413 3.387 3.413h4.507c1.867 0 3.387-1.52 3.387-3.413v-4.545c0-1.881-1.52-3.415-3.387-3.415zM21.44 17.96h4.507c1.867 0 3.387 1.521 3.387 3.415v4.545c0 1.88-1.52 3.413-3.387 3.413h-4.507c-1.88 0-3.387-1.533-3.387-3.413v-4.545c0-1.893 1.507-3.415 3.387-3.415z"></path>
</symbol>
<symbol id="dashboard_four-circles" viewBox="0 0 32 32">
<path fill="#fb6d3a" style="fill: var(--color15, #fb6d3a)" d="M8.199 14.497c-0.745 0-1.483-0.147-2.171-0.432s-1.314-0.703-1.84-1.23c-0.527-0.527-0.945-1.152-1.23-1.84s-0.432-1.426-0.432-2.171c0-0.745 0.147-1.483 0.432-2.171s0.703-1.314 1.23-1.84c0.527-0.527 1.152-0.945 1.84-1.23s1.426-0.432 2.171-0.432c1.504 0 2.947 0.598 4.011 1.661s1.661 2.507 1.661 4.011c0 1.504-0.598 2.947-1.661 4.011s-2.507 1.661-4.011 1.661zM8.829 27.102c-1.504 0-2.947-0.598-4.011-1.662s-1.661-2.507-1.661-4.011c0-1.504 0.598-2.947 1.661-4.011s2.507-1.661 4.011-1.661c1.504 0 2.947 0.598 4.011 1.661s1.661 2.507 1.661 4.011c0 1.505-0.598 2.947-1.661 4.011s-2.507 1.662-4.011 1.662zM21.435 14.497c-0.745 0-1.483-0.147-2.171-0.432s-1.314-0.703-1.84-1.23-0.945-1.152-1.23-1.84c-0.285-0.688-0.432-1.426-0.432-2.171s0.147-1.483 0.432-2.171c0.285-0.688 0.703-1.314 1.23-1.84s1.152-0.945 1.84-1.23c0.688-0.285 1.426-0.432 2.171-0.432 1.504 0 2.947 0.598 4.011 1.661s1.662 2.507 1.662 4.011-0.598 2.947-1.662 4.011c-1.064 1.064-2.507 1.661-4.011 1.661zM21.435 27.102c-1.504 0-2.947-0.598-4.011-1.662s-1.661-2.507-1.661-4.011c0-1.504 0.598-2.947 1.661-4.011s2.507-1.661 4.011-1.661c1.504 0 2.947 0.598 4.011 1.661s1.662 2.507 1.662 4.011c0 1.505-0.598 2.947-1.662 4.011s-2.507 1.662-4.011 1.662zM8.199 11.976c0.836 0 1.637-0.332 2.228-0.923s0.923-1.393 0.923-2.228c0-0.836-0.332-1.637-0.923-2.228s-1.393-0.923-2.228-0.923c-0.836 0-1.637 0.332-2.228 0.923s-0.923 1.393-0.923 2.228c0 0.836 0.332 1.637 0.923 2.228s1.393 0.923 2.228 0.923zM8.829 24.581c0.836 0 1.637-0.332 2.228-0.923s0.923-1.393 0.923-2.229c0-0.836-0.332-1.637-0.923-2.228s-1.393-0.923-2.228-0.923-1.637 0.332-2.228 0.923c-0.591 0.591-0.923 1.393-0.923 2.228s0.332 1.637 0.923 2.229c0.591 0.591 1.393 0.923 2.228 0.923zM21.435 11.976c0.836 0 1.637-0.332 2.228-0.923s0.923-1.393 0.923-2.228-0.332-1.637-0.923-2.228c-0.591-0.591-1.393-0.923-2.228-0.923s-1.637 0.332-2.228 0.923c-0.591 0.591-0.923 1.393-0.923 2.228s0.332 1.637 0.923 2.228c0.591 0.591 1.393 0.923 2.228 0.923zM21.435 24.581c0.836 0 1.637-0.332 2.228-0.923s0.923-1.393 0.923-2.229c0-0.836-0.332-1.637-0.923-2.228s-1.393-0.923-2.228-0.923-1.637 0.332-2.228 0.923c-0.591 0.591-0.923 1.393-0.923 2.228s0.332 1.637 0.923 2.229c0.591 0.591 1.393 0.923 2.228 0.923z"></path>
</symbol>
<symbol id="dashboard-tools" viewBox="0 0 32 32">
<path fill="#7a67c7" style="fill: var(--color16, #7a67c7)" d="M27.669 12.701l-2.265-0.755 1.066-2.133c0.108-0.223 0.144-0.475 0.103-0.719s-0.156-0.471-0.331-0.647l-2.552-2.552c-0.177-0.177-0.405-0.295-0.652-0.335s-0.501-0.003-0.726 0.108l-2.133 1.066-0.755-2.265c-0.080-0.236-0.231-0.441-0.433-0.587s-0.444-0.225-0.693-0.227h-3.595c-0.251-0.001-0.496 0.078-0.701 0.224s-0.357 0.353-0.438 0.591l-0.755 2.265-2.133-1.066c-0.223-0.108-0.475-0.144-0.719-0.104s-0.471 0.156-0.647 0.331l-2.552 2.552c-0.177 0.177-0.295 0.405-0.335 0.652s-0.003 0.501 0.108 0.726l1.066 2.133-2.265 0.755c-0.236 0.080-0.441 0.231-0.587 0.433s-0.226 0.444-0.227 0.693v3.595c-0.001 0.251 0.078 0.496 0.224 0.701s0.353 0.357 0.591 0.438l2.265 0.755-1.066 2.133c-0.108 0.223-0.144 0.475-0.104 0.719s0.156 0.471 0.331 0.647l2.552 2.552c0.177 0.177 0.405 0.294 0.652 0.335s0.501 0.003 0.726-0.108l2.133-1.066 0.755 2.265c0.080 0.238 0.234 0.445 0.438 0.591s0.449 0.224 0.701 0.224h3.595c0.251 0.001 0.496-0.078 0.701-0.224s0.357-0.353 0.438-0.591l0.755-2.265 2.133 1.066c0.222 0.105 0.471 0.14 0.713 0.099s0.466-0.155 0.641-0.327l2.552-2.552c0.177-0.177 0.295-0.405 0.335-0.652s0.003-0.501-0.108-0.726l-1.066-2.133 2.265-0.755c0.236-0.080 0.441-0.231 0.587-0.433s0.226-0.444 0.227-0.693v-3.595c0.001-0.251-0.078-0.496-0.224-0.701s-0.353-0.357-0.591-0.438zM26.087 16.571l-1.438 0.479c-0.331 0.107-0.634 0.285-0.889 0.521s-0.455 0.525-0.588 0.847-0.193 0.668-0.178 1.015c0.015 0.347 0.105 0.687 0.265 0.996l0.683 1.366-1.318 1.318-1.33-0.719c-0.307-0.153-0.644-0.238-0.987-0.25s-0.685 0.050-1.002 0.182c-0.317 0.132-0.602 0.33-0.836 0.582s-0.411 0.55-0.519 0.876l-0.479 1.438h-1.905l-0.479-1.438c-0.107-0.331-0.285-0.634-0.521-0.889s-0.525-0.455-0.847-0.588-0.668-0.193-1.015-0.178c-0.347 0.015-0.687 0.105-0.996 0.265l-1.366 0.683-1.318-1.318 0.719-1.33c0.159-0.309 0.25-0.649 0.265-0.996s-0.046-0.694-0.178-1.015c-0.132-0.321-0.333-0.61-0.588-0.847s-0.558-0.414-0.889-0.521l-1.438-0.479v-1.869l1.438-0.479c0.331-0.107 0.634-0.285 0.889-0.521s0.456-0.525 0.588-0.847c0.132-0.321 0.193-0.668 0.178-1.015s-0.105-0.687-0.265-0.996l-0.683-1.33 1.318-1.318 1.33 0.683c0.309 0.159 0.649 0.25 0.996 0.265s0.694-0.046 1.015-0.178c0.321-0.132 0.61-0.333 0.847-0.588s0.414-0.558 0.521-0.889l0.479-1.438h1.869l0.479 1.438c0.107 0.331 0.285 0.634 0.521 0.889s0.525 0.456 0.847 0.588c0.321 0.132 0.668 0.193 1.015 0.178s0.687-0.105 0.996-0.265l1.366-0.683 1.318 1.318-0.719 1.33c-0.153 0.307-0.238 0.644-0.25 0.987s0.051 0.685 0.182 1.002c0.132 0.317 0.33 0.602 0.582 0.836s0.55 0.411 0.876 0.519l1.438 0.479v1.905zM16.502 10.844c-0.948 0-1.875 0.281-2.663 0.808s-1.403 1.275-1.765 2.151c-0.363 0.876-0.458 1.839-0.273 2.769s0.641 1.784 1.312 2.454c0.67 0.67 1.524 1.127 2.454 1.312s1.893 0.090 2.769-0.273c0.876-0.363 1.624-0.977 2.151-1.765s0.808-1.715 0.808-2.663c0-1.271-0.505-2.49-1.404-3.389s-2.118-1.404-3.389-1.404zM16.502 18.033c-0.474 0-0.937-0.141-1.331-0.404s-0.701-0.638-0.883-1.076c-0.181-0.438-0.229-0.92-0.136-1.385s0.321-0.892 0.656-1.227c0.335-0.335 0.762-0.563 1.227-0.656s0.947-0.045 1.385 0.136c0.438 0.181 0.812 0.489 1.075 0.883s0.404 0.857 0.404 1.331c0 0.636-0.253 1.245-0.702 1.695s-1.059 0.702-1.695 0.702z"></path>
</symbol>
<symbol id="dashboard-message" viewBox="0 0 34 32">
<path fill="#7a67c7" style="fill: var(--color16, #7a67c7)" d="M11.635 27.48l-5.316 1.181c-0.688 0.153-1.302-0.461-1.149-1.149l1.181-5.316c-0.994-1.86-1.513-3.937-1.51-6.046 0-7.090 5.748-12.838 12.838-12.838s12.838 5.748 12.838 12.838-5.748 12.838-12.838 12.838c-2.109 0.003-4.186-0.515-6.046-1.51zM12.007 24.768l0.838 0.449c1.487 0.795 3.148 1.209 4.835 1.206 2.031 0 4.017-0.602 5.706-1.731s3.006-2.733 3.783-4.609c0.777-1.877 0.981-3.942 0.584-5.934s-1.374-3.822-2.811-5.259-3.266-2.415-5.259-2.811c-1.992-0.396-4.057-0.193-5.934 0.584s-3.481 2.094-4.609 3.783c-1.129 1.689-1.731 3.675-1.731 5.706 0 1.713 0.417 3.361 1.207 4.835l0.448 0.838-0.71 3.193c-0.061 0.275 0.184 0.521 0.46 0.459l3.193-0.709z"></path>
</symbol>
<symbol id="dashboard-chart" viewBox="0 0 36 32">
<path fill="#7a67c7" style="fill: var(--color16, #7a67c7)" d="M10.324 18.116h-5.554c-0.368 0-0.721 0.133-0.982 0.369s-0.407 0.556-0.407 0.89v10.067c0 0.334 0.146 0.654 0.407 0.89s0.614 0.369 0.982 0.369h5.554c0.368 0 0.721-0.133 0.982-0.369s0.407-0.556 0.407-0.89v-10.067c0-0.334-0.146-0.654-0.407-0.89s-0.614-0.369-0.982-0.369zM8.936 28.183h-2.777v-7.55h2.777v7.55zM32.54 13.082h-5.554c-0.368 0-0.721 0.133-0.982 0.369s-0.407 0.556-0.407 0.89v15.1c0 0.334 0.146 0.654 0.407 0.89s0.614 0.369 0.982 0.369h5.554c0.368 0 0.721-0.133 0.982-0.369s0.407-0.556 0.407-0.89v-15.1c0-0.334-0.146-0.654-0.407-0.89s-0.614-0.369-0.982-0.369zM31.151 28.183h-2.777v-12.584h2.777v12.584zM21.432 3.016h-5.554c-0.368 0-0.721 0.133-0.982 0.369s-0.407 0.556-0.407 0.89v25.167c0 0.334 0.146 0.654 0.407 0.89s0.614 0.369 0.982 0.369h5.554c0.368 0 0.721-0.133 0.982-0.369s0.407-0.556 0.407-0.89v-25.167c0-0.334-0.146-0.654-0.407-0.89s-0.614-0.369-0.982-0.369zM20.044 28.183h-2.777v-22.65h2.777v22.65z"></path>
</symbol>
<symbol id="dashboard-search" viewBox="0 0 32 32">
<path fill="#54439d" style="fill: var(--color1, #54439d)" d="M2.667 14.227c0-6.384 5.12-11.56 11.437-11.56 3.033 0 5.942 1.218 8.087 3.386s3.35 5.108 3.35 8.174c0 6.384-5.12 11.56-11.437 11.56s-11.437-5.176-11.437-11.56zM25.351 23.539l3.406 2.75h0.059c0.689 0.697 0.689 1.826 0 2.522s-1.806 0.697-2.496 0l-2.827-3.239c-0.267-0.269-0.418-0.635-0.418-1.016s0.15-0.747 0.418-1.016c0.515-0.512 1.341-0.512 1.857 0z"></path>
</symbol>
</defs>
</svg>
