<svg aria-hidden="true" style="position: absolute; width: 0; height: 0; overflow: hidden;" version="1.1" xmlns="http://www.w3.org/2000/svg" xmlns:xlink="http://www.w3.org/1999/xlink">
<defs>
<symbol id="instagram" viewBox="0 0 32 32">
<path d="M9.6 0h12.8c5.302 0 9.6 4.298 9.6 9.6v12.8c0 5.302-4.298 9.6-9.6 9.6h-12.8c-5.302 0-9.6-4.298-9.6-9.6v-12.8c0-5.302 4.298-9.6 9.6-9.6zM25.6 4.8c0.8 0 1.6 0.8 1.6 1.6s-0.8 1.6-1.6 1.6c-0.8 0-1.6-0.8-1.6-1.6s0.8-1.6 1.6-1.6zM24 16c0-4.412-3.588-8-8-8s-8 3.588-8 8c0 4.412 3.588 8 8 8s8-3.588 8-8zM16 11.2c-2.651 0-4.8 2.149-4.8 4.8s2.149 4.8 4.8 4.8c2.651 0 4.8-2.149 4.8-4.8s-2.149-4.8-4.8-4.8z"></path>
</symbol>
<symbol id="twitter" viewBox="0 0 32 32">
<path d="M28.8 0h-25.6c-1.767 0-3.2 1.433-3.2 3.2v25.6c0 1.767 1.433 3.2 3.2 3.2h25.6c1.767 0 3.2-1.433 3.2-3.2v-25.6c0-1.767-1.433-3.2-3.2-3.2zM24.56 9.983c0.93-0.107 1.815-0.346 2.64-0.7-0.616 0.89-1.396 1.673-2.294 2.3 0.009 0.191 0.013 0.382 0.013 0.575 0 5.872-4.621 12.642-13.074 12.642-2.596 0-5.011-0.736-7.045-1.996 0.36 0.042 0.726 0.063 1.097 0.063 2.154 0 4.135-0.711 5.707-1.903-2.011-0.036-3.708-1.321-4.293-3.086 0.28 0.051 0.569 0.079 0.864 0.079 0.42 0 0.826-0.054 1.211-0.156-2.103-0.407-3.686-2.203-3.686-4.356v-0.056c0.619 0.332 1.328 0.532 2.081 0.556-1.233-0.796-2.043-2.157-2.043-3.698 0-0.816 0.227-1.579 0.621-2.235 2.267 2.689 5.653 4.458 9.472 4.643-0.078-0.324-0.119-0.664-0.119-1.012 0-2.453 2.057-4.443 4.595-4.443 1.321 0 2.516 0.54 3.354 1.404 1.048-0.2 2.032-0.57 2.919-1.079-0.343 1.038-1.071 1.908-2.020 2.458z"></path>
</symbol>
<symbol id="facebook" viewBox="0 0 32 32">
<path d="M28.8 0h-25.6c-1.767 0-3.2 1.433-3.2 3.2v25.6c0 1.767 1.433 3.2 3.2 3.2h12.8v-12.047h-4.8v-4.518h4.8v-2.426c0-4.593 2.384-6.609 6.28-6.609 1.829 0 2.814 0.13 3.292 0.194l0.028 0.004v4.32h-2.658c-1.654 0-2.142 0.855-2.142 2.587v1.931h4.759l-0.658 4.518h-4.101v12.047h8c1.767 0 3.2-1.433 3.2-3.2v-25.6c0-1.767-1.433-3.2-3.2-3.2z"></path>
</symbol>
<symbol id="document" viewBox="0 0 32 32">
<path d="M10.413 2.667h11.175c4.119 0 6.412 2.373 6.412 6.44v13.773c0 4.133-2.293 6.453-6.412 6.453h-11.175c-4.053 0-6.413-2.32-6.413-6.453v-13.773c0-4.067 2.36-6.44 6.413-6.44zM10.773 8.88v-0.013h3.985c0.575 0 1.041 0.467 1.041 1.039 0 0.588-0.467 1.055-1.041 1.055h-3.985c-0.575 0-1.040-0.467-1.040-1.040s0.465-1.040 1.040-1.040zM10.773 16.987h10.453c0.573 0 1.040-0.467 1.040-1.040s-0.467-1.041-1.040-1.041h-10.453c-0.575 0-1.040 0.468-1.040 1.041s0.465 1.040 1.040 1.040zM10.773 23.080h10.453c0.532-0.053 0.933-0.508 0.933-1.040 0-0.547-0.401-1-0.933-1.053h-10.453c-0.4-0.040-0.787 0.147-1 0.493-0.213 0.333-0.213 0.773 0 1.12 0.213 0.333 0.6 0.533 1 0.48z"></path>
</symbol>
<symbol id="folder" viewBox="0 0 32 32">
<path d="M17.933 6.507h4.093c4.92 0 7.32 2.627 7.307 8.013v6.493c0 5.147-3.173 8.32-8.333 8.32h-10.013c-5.133 0-8.32-3.173-8.32-8.333v-10.013c0-5.52 2.453-8.32 7.293-8.32h2.107c1.241-0.013 2.4 0.56 3.16 1.533l1.173 1.56c0.373 0.467 0.933 0.747 1.533 0.747zM9.826 20.387h12.347c0.547 0 0.987-0.453 0.987-1 0-0.56-0.44-1-0.987-1h-12.347c-0.56 0-1 0.44-1 1 0 0.547 0.44 1 1 1z"></path>
</symbol>
<symbol id="bag" viewBox="0 0 32 32">
<path d="M21.891 8.627h0.273c3.589 0 6.502 3 6.502 6.68v7.36c0 3.68-2.913 6.667-6.502 6.667h-12.329c-3.589 0-6.502-2.987-6.502-6.667v-7.36c0-3.68 2.913-6.68 6.502-6.68h0.273c0.026-1.6 0.637-3.093 1.743-4.213 1.118-1.133 2.549-1.707 4.162-1.747 3.225 0 5.839 2.667 5.878 5.96zM13.217 5.84c-0.728 0.747-1.131 1.733-1.157 2.787h7.881c-0.039-2.187-1.782-3.96-3.927-3.96-1.001 0-2.042 0.413-2.796 1.173zM20.942 13.76c0.546 0 0.975-0.453 0.975-1v-1.547c0-0.547-0.429-1-0.975-1-0.533 0-0.975 0.453-0.975 1v1.547c0 0.547 0.442 1 0.975 1zM11.917 12.76c0 0.547-0.429 1-0.975 1-0.533 0-0.975-0.453-0.975-1v-1.547c0-0.547 0.442-1 0.975-1 0.546 0 0.975 0.453 0.975 1v1.547z"></path>
</symbol>
<symbol id="graph" viewBox="0 0 32 32">
<path d="M16.435 2.946c0.213-0.191 0.494-0.291 0.783-0.278 6.094 0.182 11.188 4.607 12.111 10.52 0.006 0.035 0.006 0.071 0 0.107 0.020 0.28-0.075 0.556-0.263 0.767s-0.454 0.34-0.739 0.358l-10.239 0.675c-0.339 0.030-0.674-0.081-0.925-0.307s-0.393-0.544-0.391-0.878l-0.688-10.058v-0.166c0.013-0.283 0.139-0.549 0.352-0.74zM15.733 17.725l8.875-0.569 0.060 0.024c0.381 0.006 0.744 0.161 1.009 0.43s0.41 0.63 0.404 1.004c-0.35 5.096-4.086 9.354-9.171 10.451s-10.297-1.23-12.793-5.712c-0.734-1.291-1.198-2.713-1.364-4.182-0.065-0.435-0.093-0.875-0.085-1.315 0.017-5.419 3.875-10.096 9.273-11.242 0.653-0.122 1.309 0.204 1.594 0.794 0.071 0.107 0.128 0.222 0.169 0.344 0.101 1.562 0.206 3.11 0.311 4.65 0.082 1.217 0.165 2.43 0.245 3.642-0.004 0.286 0.041 0.57 0.133 0.841 0.217 0.533 0.756 0.872 1.34 0.841z"></path>
</symbol>
<symbol id="search" viewBox="0 0 32 32">
<path d="M2.667 14.227c0-6.384 5.12-11.56 11.437-11.56 3.033 0 5.942 1.218 8.087 3.386s3.35 5.108 3.35 8.174c0 6.384-5.12 11.56-11.437 11.56s-11.437-5.176-11.437-11.56zM25.351 23.539l3.406 2.75h0.059c0.689 0.697 0.689 1.826 0 2.522s-1.806 0.697-2.496 0l-2.827-3.24c-0.267-0.269-0.417-0.635-0.417-1.016s0.15-0.747 0.417-1.016c0.515-0.512 1.341-0.512 1.857 0z"></path>
</symbol>
<symbol id="users" viewBox="0 0 32 32">
<path  d="M21.545 10.977c0 3.133-2.498 5.645-5.612 5.645s-5.612-2.512-5.612-5.645c0-3.134 2.498-5.644 5.612-5.644s5.612 2.51 5.612 5.644zM15.932 26.666c-4.575 0-8.481-0.725-8.481-3.627 0-2.902 3.881-3.654 8.481-3.654 4.575 0 8.481 0.725 8.481 3.628 0 2.901-3.881 3.653-8.481 3.653zM23.943 11.079c0 1.597-0.476 3.085-1.312 4.322-0.086 0.127-0.010 0.299 0.142 0.325 0.209 0.036 0.425 0.056 0.645 0.062 2.191 0.058 4.157-1.36 4.7-3.496 0.805-3.171-1.558-6.018-4.566-6.018-0.327 0-0.64 0.035-0.944 0.097-0.042 0.010-0.086 0.029-0.11 0.066-0.029 0.046-0.007 0.107 0.021 0.146 0.904 1.274 1.424 2.828 1.424 4.495zM27.571 18.017c1.472 0.289 2.44 0.88 2.841 1.739 0.339 0.705 0.339 1.523 0 2.226-0.614 1.332-2.592 1.759-3.361 1.87-0.159 0.024-0.287-0.114-0.27-0.274 0.393-3.69-2.732-5.44-3.54-5.842-0.035-0.018-0.042-0.046-0.038-0.062 0.002-0.012 0.017-0.031 0.043-0.035 1.749-0.032 3.629 0.208 4.324 0.378zM8.583 15.788c0.22-0.006 0.435-0.025 0.645-0.063 0.152-0.026 0.228-0.198 0.142-0.325-0.836-1.237-1.312-2.725-1.312-4.322 0-1.667 0.521-3.221 1.424-4.495 0.029-0.040 0.049-0.101 0.021-0.146-0.024-0.036-0.069-0.056-0.11-0.066-0.306-0.062-0.618-0.097-0.946-0.097-3.009 0-5.371 2.847-4.565 6.019 0.543 2.135 2.51 3.553 4.7 3.496zM8.796 17.672c0.004 0.018-0.004 0.044-0.037 0.064-0.809 0.402-3.934 2.152-3.541 5.841 0.017 0.161-0.11 0.298-0.269 0.275-0.769-0.11-2.747-0.538-3.361-1.87-0.34-0.705-0.34-1.521 0-2.226 0.401-0.859 1.368-1.45 2.84-1.74 0.696-0.169 2.575-0.41 4.325-0.377 0.026 0.004 0.039 0.023 0.042 0.034z"></path>
</symbol>
<symbol id="discount" viewBox="0 0 32 32">
<path d="M27.199 12.195l0.96 0.96c0.76 0.747 1.174 1.76 1.174 2.827 0.013 1.067-0.4 2.081-1.147 2.84-0.009 0.010-0.018 0.018-0.027 0.027-0.004 0.004-0.009 0.009-0.013 0.013l-0.947 0.947c-0.373 0.373-0.587 0.88-0.587 1.415v1.372c0 2.213-1.801 4.015-4.015 4.015h-1.374c-0.534 0-1.040 0.212-1.414 0.585l-0.96 0.96c-0.787 0.788-1.814 1.173-2.841 1.173s-2.054-0.385-2.841-1.159l-0.974-0.975c-0.373-0.373-0.88-0.585-1.414-0.585h-1.374c-2.214 0-4.015-1.801-4.015-4.015v-1.372c0-0.535-0.213-1.041-0.587-1.428l-0.96-0.947c-1.561-1.559-1.574-4.107-0.013-5.679l0.974-0.975c0.373-0.373 0.587-0.88 0.587-1.427v-1.36c0-2.213 1.801-4.012 4.015-4.012h1.374c0.534 0 1.040-0.215 1.414-0.588l0.96-0.96c1.561-1.572 4.108-1.572 5.682-0.012l0.974 0.972c0.373 0.373 0.88 0.588 1.414 0.588h1.374c2.214 0 4.015 1.799 4.015 4.012v1.375c0 0.532 0.213 1.039 0.587 1.412zM12.567 20.595c0.32 0 0.614-0.12 0.827-0.347l6.856-6.852c0.453-0.453 0.453-1.201 0-1.655-0.454-0.452-1.187-0.452-1.641 0l-6.856 6.853c-0.454 0.453-0.454 1.2 0 1.653 0.213 0.227 0.507 0.347 0.814 0.347zM18.262 19.421c0 0.653 0.52 1.173 1.174 1.173 0.64 0 1.16-0.52 1.16-1.173 0-0.639-0.52-1.16-1.16-1.16-0.654 0-1.174 0.521-1.174 1.16zM12.58 11.408c0.64 0 1.16 0.52 1.16 1.16 0 0.655-0.52 1.173-1.16 1.173s-1.174-0.519-1.174-1.173c0-0.64 0.534-1.16 1.174-1.16z"></path>
</symbol>

<symbol id="logo" viewBox="0 0 136 32">
<path d="M20.552 10.635c-1.823-1.053-2.477-3.421-1.411-5.267 1.053-1.823 3.422-2.477 5.267-1.411 1.823 1.053 2.477 3.421 1.411 5.267s-3.421 2.477-5.267 1.411z"></path>
<path d="M49.452 17.107c3.057-5.294 1.218-12.155-4.076-15.211-5.316-3.069-12.155-1.218-15.211 4.076l-8.142 14.103c0 0 20.53 8.983 27.429-2.967z"></path>
<path d="M3.881 15.797c-2.131 3.69-0.871 8.459 2.819 10.59s8.437 0.859 10.568-2.832l5.669-9.819c0.022 0.013-14.262-6.243-19.056 2.061zM9.553 21.444c-0.967-0.558-1.301-1.805-0.743-2.772s1.805-1.301 2.772-0.743c0.967 0.558 1.301 1.805 0.743 2.772-0.536 0.979-1.783 1.313-2.772 0.743z"></path>
<path d="M59.684 19.26c-0.771-0.433-1.396-1.011-1.83-1.782s-0.674-1.589-0.674-2.552 0.241-1.782 0.674-2.552c0.433-0.77 1.059-1.348 1.83-1.782s1.637-0.626 2.648-0.626c0.771 0 1.492 0.144 2.167 0.433s1.204 0.674 1.637 1.204l-1.156 1.107c-0.674-0.77-1.541-1.107-2.552-1.107-0.674 0-1.252 0.144-1.782 0.433s-0.915 0.674-1.204 1.204c-0.289 0.53-0.433 1.107-0.433 1.733s0.144 1.252 0.433 1.733c0.289 0.53 0.722 0.915 1.204 1.204 0.529 0.289 1.107 0.433 1.782 0.433 1.011 0 1.878-0.385 2.552-1.156l1.156 1.107c-0.433 0.53-1.011 0.915-1.637 1.204-0.674 0.289-1.396 0.433-2.167 0.433-0.963 0-1.878-0.241-2.648-0.674z"></path>
<path d="M69.507 19.26c-0.77-0.433-1.396-1.011-1.878-1.782-0.433-0.77-0.674-1.589-0.674-2.552 0-0.915 0.241-1.782 0.674-2.552s1.060-1.348 1.878-1.782c0.771-0.433 1.686-0.626 2.648-0.626s1.878 0.193 2.649 0.626c0.77 0.433 1.396 1.011 1.877 1.782 0.433 0.77 0.674 1.589 0.674 2.552s-0.241 1.782-0.674 2.552c-0.433 0.77-1.059 1.348-1.877 1.782-0.771 0.433-1.686 0.626-2.649 0.626-1.011 0.048-1.877-0.193-2.648-0.626zM73.889 17.912c0.529-0.289 0.915-0.674 1.203-1.204s0.433-1.107 0.433-1.733c0-0.626-0.144-1.204-0.433-1.733s-0.674-0.915-1.203-1.204c-0.53-0.289-1.107-0.433-1.734-0.433s-1.203 0.144-1.733 0.433-0.915 0.674-1.204 1.204c-0.289 0.53-0.433 1.107-0.433 1.733s0.145 1.204 0.433 1.733c0.289 0.53 0.674 0.915 1.204 1.204s1.107 0.433 1.733 0.433c0.626 0 1.204-0.144 1.734-0.433z"></path>
<path d="M88.044 19.79v-6.356l-3.177 5.297h-0.819l-3.178-5.2v6.308h-1.685v-9.63h1.492l3.804 6.356 3.756-6.356h1.492v9.63h-1.686v-0.048z"></path>
<path d="M98.493 10.594c0.626 0.289 1.107 0.674 1.445 1.204s0.481 1.107 0.481 1.83c0 0.674-0.144 1.3-0.481 1.83s-0.819 0.915-1.445 1.204-1.348 0.433-2.167 0.433h-2.167v2.793h-1.781v-9.63h3.949c0.818-0.096 1.541 0.048 2.167 0.337zM97.963 15.024c0.386-0.337 0.626-0.819 0.626-1.396 0-0.626-0.193-1.107-0.626-1.396-0.385-0.337-1.011-0.482-1.781-0.482h-2.070v3.804h2.070c0.819-0.048 1.396-0.241 1.781-0.53z"></path>
<path d="M107.931 17.576h-4.815l-0.963 2.215h-1.83l4.333-9.63h1.782l4.333 9.63h-1.877l-0.963-2.215zM107.353 16.18l-1.83-4.189-1.781 4.189h3.611z"></path>
<path d="M120.546 10.161v9.63h-1.493l-5.296-6.5v6.5h-1.781v-9.63h1.492l5.297 6.5v-6.5h1.781z"></path>
<path d="M127.287 16.372v3.37h-1.781v-3.37l-3.756-6.259h1.926l2.792 4.671 2.841-4.671h1.781l-3.804 6.259z"></path>
</symbol>

<symbol id="chart" viewBox="0 0 28 28">
 <path fill-rule="evenodd" clip-rule="evenodd" d="M8.552 2.334h10.896c3.968 0 6.207 2.25 6.22 6.218V19.45c0 3.967-2.252 6.218-6.22 6.218H8.552c-3.968 0-6.218-2.251-6.218-6.218V8.552c0-3.968 2.25-6.218 6.218-6.218Zm5.506 18.503a.964.964 0 0 0 .968-.875V8.074a.951.951 0 0 0-.442-.922.98.98 0 0 0-1.495.922v11.888c.06.502.479.875.969.875Zm5.367 0c.49 0 .91-.373.969-.875v-3.826a.978.978 0 0 0-1.493-.922.94.94 0 0 0-.444.922v3.826a.964.964 0 0 0 .968.875Zm-9.836-.875a.965.965 0 0 1-.968.875.963.963 0 0 1-.967-.875v-8.061a.981.981 0 0 1 .455-.922.96.96 0 0 1 1.027 0c.313.198.49.559.453.922v8.061Z" />
</symbol>
</defs>
</svg>
